<svg xmlns="http://www.w3.org/2000/svg" width="2379" height="1005" viewBox="0 0 2379 1005" version="1.1"><path d="M 1470.605 24.620 C 1453.387 52.670, 1443.238 65.664, 1427.195 80.203 C 1408.103 97.505, 1378.356 115.452, 1345.500 129.492 C 1321.215 139.869, 1275.450 156.108, 1234 169.055 C 1199.530 179.823, 1194.973 181.272, 1175.500 187.664 C 1148.291 196.596, 1135.494 201.676, 1115.500 211.480 C 1088.332 224.802, 1067.935 239.003, 1049.453 257.465 C 1020.720 286.167, 1007.566 316.607, 1009.282 350.422 C 1011.619 396.462, 1036.722 440.574, 1092.157 496.052 C 1106.133 510.039, 1127.381 529.440, 1141.259 540.885 C 1145.516 544.396, 1149 547.472, 1149 547.721 C 1149 548.502, 1123.093 534.628, 1108.796 526.190 C 1049.915 491.437, 1002.196 449.256, 978.154 410.711 C 963.760 387.633, 955.798 363.962, 954.588 340.647 C 954.335 335.778, 953.987 331.658, 953.814 331.491 C 952.931 330.638, 929.710 361.126, 922.905 372.073 C 912.072 389.500, 905.618 404.876, 901.956 421.976 C 900.016 431.039, 899.814 434.244, 900.293 448.395 C 900.991 469.034, 903.869 480.349, 913.546 500.500 C 931.629 538.151, 965.022 568.903, 1025.198 603.317 C 1045.017 614.651, 1061.776 623.400, 1107.772 646.425 C 1127.171 656.136, 1148.546 667.270, 1155.272 671.167 C 1169.867 679.623, 1216.357 712.234, 1229.722 723.389 C 1250.792 740.976, 1259.531 756.896, 1262.117 782.402 C 1268.474 845.103, 1219.234 891.175, 1135.918 900.482 C 1109.446 903.439, 1073.937 902.091, 1047 897.105 C 1002.530 888.875, 958.660 870.551, 923.656 845.584 C 913.507 838.345, 901.610 828.026, 900.087 825.139 C 899.611 824.238, 898.460 817.200, 897.530 809.500 C 896.600 801.800, 893.852 779.750, 891.422 760.500 C 881.474 681.671, 871.750 604.145, 866.965 565.500 C 856.673 482.380, 843.215 383.972, 837.836 352.500 C 833.031 324.384, 833.906 314.082, 842.560 296.886 C 848.391 285.299, 859.652 272.840, 868.500 268.186 L 872.500 266.082 783.654 266.291 L 694.808 266.500 689.795 280.500 C 687.038 288.200, 681.874 302.600, 678.319 312.500 C 674.764 322.400, 669.675 336.575, 667.010 344 C 650.222 390.765, 623.559 463.584, 616.846 481 C 612.500 492.275, 586.149 562.369, 558.287 636.765 C 530.426 711.161, 507.328 771.686, 506.960 771.265 C 506.219 770.420, 505.189 768.027, 471.975 690 C 459.216 660.025, 444.830 626.275, 440.008 615 C 435.185 603.725, 422.227 573.350, 411.212 547.500 C 400.197 521.650, 388.497 494.200, 385.211 486.500 C 381.926 478.800, 370.593 452.700, 360.027 428.500 C 349.461 404.300, 334.067 368.975, 325.818 350 C 317.568 331.025, 309.133 311.675, 307.073 307 C 305.013 302.325, 300.249 291.420, 296.487 282.767 L 289.647 267.033 205.073 266.767 C 158.558 266.620, 119.435 266.741, 118.134 267.036 C 116.018 267.516, 116.407 267.967, 121.819 271.308 C 133.621 278.592, 143.927 293.006, 147.385 307.064 C 150.258 318.741, 149.821 324.831, 140.504 403 C 121.789 560.023, 89.775 810.272, 82.873 853.500 C 76.792 891.589, 59.961 923.441, 37.629 939.124 L 30.686 944 117.978 944 L 205.270 944 202.385 941.836 C 179.468 924.642, 164.743 893.917, 162.447 858.500 C 160.951 835.421, 168.042 770.733, 186.069 643 C 195.689 574.834, 212.834 459.843, 223.566 391.500 C 226.125 375.204, 225.824 375.268, 231.935 389.713 C 234.911 396.746, 240.368 409.475, 244.062 418 C 247.756 426.525, 258.665 451.950, 268.305 474.500 C 353.888 674.716, 438.111 870.267, 442.202 878.263 C 457.464 908.085, 480.345 934.082, 503.484 947.889 C 507.325 950.181, 511.063 951.931, 511.792 951.778 C 512.527 951.624, 531.373 905.889, 554.146 849 C 704.845 472.523, 742.221 379.408, 742.921 378.694 C 743.357 378.250, 744.020 380.050, 744.395 382.694 C 752.734 441.404, 775.493 614.012, 785.904 697.500 C 799.101 803.336, 803.002 841.091, 802.997 862.937 C 802.989 899.909, 793.616 920.926, 769.726 937.540 C 765.202 940.686, 762.344 942.969, 763.375 942.614 C 774.307 938.842, 807.177 936.652, 832.733 937.991 C 869.591 939.924, 903.056 945.235, 949.679 956.551 C 992.263 966.887, 1020.249 972.035, 1051 975.188 C 1067.870 976.917, 1124.058 976.913, 1138.500 975.181 C 1198.315 968.007, 1248.246 952.337, 1289.180 927.893 C 1319.496 909.788, 1339.472 892.568, 1352.158 873.602 C 1363.104 857.238, 1366.466 849.173, 1375.380 817.894 C 1388.345 772.402, 1414.776 697.532, 1450.010 606.500 C 1456.183 590.550, 1463.844 570.750, 1467.034 562.500 C 1470.224 554.250, 1475.371 540.975, 1478.472 533 C 1481.574 525.025, 1485.841 514, 1487.956 508.500 C 1492.843 495.790, 1540.358 373.421, 1544.065 364 C 1545.566 360.184, 1545.948 359.804, 1546.579 361.500 C 1547.774 364.713, 1608.189 516.128, 1618.998 543 C 1624.418 556.475, 1637.836 590, 1648.815 617.500 C 1659.795 645, 1673.130 678.235, 1678.450 691.355 C 1683.770 704.476, 1687.982 715.314, 1687.811 715.440 C 1687.640 715.566, 1679.850 716.903, 1670.500 718.412 C 1591.986 731.083, 1532.178 754.167, 1484.036 790.381 C 1471.946 799.475, 1449.933 820.793, 1440.588 832.458 C 1416.784 862.170, 1400.336 893.567, 1386.922 934.899 C 1382.309 949.113, 1372.975 983.670, 1373.018 986.377 C 1373.027 986.995, 1375.920 980.629, 1379.447 972.232 C 1393.730 938.216, 1409.718 914.302, 1435.484 888.412 C 1485.631 838.024, 1557.142 806.646, 1655 792.091 C 1670.208 789.829, 1701.427 786.299, 1710.479 785.818 L 1716.458 785.500 1727.701 813 C 1733.885 828.125, 1742.177 848.089, 1746.130 857.364 C 1754.353 876.662, 1755.963 882.490, 1755.984 893.040 C 1756.027 913.448, 1745.154 931.824, 1727.189 941.708 L 1719.878 945.730 1821.189 946.201 C 1876.910 946.460, 1923.625 946.349, 1925 945.955 C 1927.335 945.286, 1926.119 943.893, 1906.619 924.885 C 1879.268 898.224, 1868.001 884.840, 1860.615 870.236 C 1855.910 860.934, 1825.196 789.686, 1823.548 784.250 L 1822.865 782 1848.142 782 C 1871.787 782, 1886.859 782.406, 1960.500 785.028 C 1998.329 786.375, 2091.408 786.385, 2115 785.044 C 2187.421 780.929, 2237.474 772.182, 2279.500 756.295 C 2307.324 745.776, 2336.055 728.193, 2351 712.538 L 2354.500 708.872 2345.845 712.846 C 2336.403 717.182, 2325.472 720.685, 2311.500 723.852 C 2260.791 735.346, 2168.740 735.231, 2037.500 723.511 C 1879.642 709.415, 1859.919 708.011, 1819.500 707.998 L 1791.500 707.989 1786.131 694.745 C 1783.179 687.460, 1779.719 679.025, 1778.444 676 C 1777.169 672.975, 1773.119 663.075, 1769.445 654 C 1765.771 644.925, 1761.710 635.025, 1760.421 632 C 1759.133 628.975, 1755.308 619.750, 1751.922 611.500 C 1748.535 603.250, 1745.277 595.600, 1744.680 594.500 C 1744.084 593.400, 1743.490 591.857, 1743.360 591.072 C 1743.231 590.286, 1741.539 585.786, 1739.600 581.072 C 1727.875 552.556, 1713.817 518.810, 1699.993 486 C 1691.303 465.375, 1678.800 435.675, 1672.208 420 C 1643.595 351.957, 1616.852 288.697, 1612.495 278.750 L 1607.786 268 1529.697 268 L 1451.608 268 1456.099 270.848 C 1472.512 281.257, 1481.882 300.789, 1478.937 318.458 C 1475.950 336.381, 1459.780 383.567, 1433.517 451 C 1430.411 458.975, 1426.585 468.875, 1425.015 473 C 1423.444 477.125, 1415.648 496.700, 1407.690 516.500 C 1383.693 576.208, 1359.594 636.613, 1353.532 652.248 C 1350.387 660.360, 1347.379 667.266, 1346.846 667.595 C 1346.313 667.924, 1343.318 665.975, 1340.189 663.263 C 1322.522 647.951, 1287.215 624.439, 1252 604.537 C 1238.586 596.956, 1230.690 592.643, 1211 582.142 C 1201.116 576.870, 1193.203 570.053, 1180.202 555.611 C 1140.560 511.574, 1110.414 457.669, 1100.577 413.232 C 1097.106 397.555, 1096.843 377.302, 1099.933 363.727 C 1106.214 336.129, 1125.286 309.068, 1156.208 283.878 C 1181.471 263.298, 1207.520 249.370, 1286 214.477 C 1348.360 186.752, 1371.191 175.316, 1391 161.882 C 1434.851 132.145, 1464.025 93.139, 1475.428 49 C 1478.628 36.617, 1481.203 19.584, 1480.811 13.402 L 1480.500 8.500 1470.605 24.620 M 1931.761 508.750 C 1913.631 538.789, 1895 571.021, 1895 572.346 C 1895 572.706, 1917.639 573, 1945.309 573 L 1995.618 573 2003.178 558.750 C 2012.403 541.360, 2029.137 510.405, 2033.180 503.250 L 2036.147 498 1987.198 498 L 1938.249 498 1931.761 508.750" stroke="none" fill="#117958" fill-rule="evenodd"/><path d="M 1481.014 11.698 C 1481.469 13.789, 1482.363 19.325, 1483.001 24 C 1488.242 62.411, 1509.033 103.662, 1537.785 132.691 C 1545.443 140.422, 1557.115 150.683, 1562.854 154.728 C 1576.764 164.533, 1582.015 168, 1582.955 168 C 1583.530 168, 1584 168.398, 1584 168.883 C 1584 169.369, 1584.787 170.018, 1585.750 170.324 C 1586.713 170.631, 1590.425 172.532, 1594 174.549 C 1606.228 181.448, 1631.316 193.855, 1656.500 205.460 C 1659.250 206.727, 1665.904 209.842, 1671.288 212.382 C 1676.671 214.922, 1681.252 217, 1681.468 217 C 1681.890 217, 1691.047 221.143, 1702.722 226.615 C 1706.693 228.477, 1710.406 230, 1710.972 230 C 1711.537 230, 1712 230.450, 1712 231 C 1712 231.550, 1712.733 232, 1713.629 232 C 1715.143 232, 1753.534 250.853, 1762.500 255.999 C 1764.700 257.261, 1768.975 259.652, 1772 261.310 C 1777.285 264.208, 1806.971 283.658, 1808 284.898 C 1808.275 285.229, 1810.750 287.275, 1813.500 289.445 C 1834.884 306.319, 1852.122 331.310, 1858.027 354 C 1861.499 367.337, 1861.558 391.056, 1858.161 407.963 C 1853.277 432.276, 1841.692 460.881, 1825.747 488 C 1817.254 502.446, 1798.479 529.952, 1792.531 536.664 C 1791.964 537.304, 1790.526 539.104, 1789.335 540.664 C 1788.145 542.224, 1786.273 544.534, 1785.176 545.798 C 1784.079 547.062, 1781.678 549.948, 1779.841 552.211 C 1769.422 565.043, 1746.043 590, 1744.441 590 C 1743.746 590, 1743.274 590.662, 1743.393 591.471 C 1743.658 593.276, 1745 594.755, 1745 593.242 C 1745 592.641, 1747.362 590.832, 1750.250 589.222 C 1755.520 586.282, 1771.194 576.917, 1774 575.032 C 1774.825 574.478, 1780.900 570.428, 1787.500 566.032 C 1810.001 551.046, 1824.500 540.527, 1837 530.121 C 1840.575 527.145, 1845.743 522.863, 1848.484 520.605 C 1857.472 513.203, 1863.285 507.792, 1879.500 491.734 C 1915.093 456.485, 1937.255 421.720, 1946.589 386.497 C 1948.763 378.293, 1949.328 373.559, 1949.740 360.097 C 1950.629 331.065, 1946.065 308.862, 1934.455 285.738 C 1932.036 280.919, 1929.582 276.419, 1929.002 275.738 C 1928.422 275.057, 1926.504 272.250, 1924.739 269.500 C 1918.056 259.087, 1905.023 246.028, 1888.980 233.671 C 1875.056 222.945, 1846.871 208.295, 1820.500 198.075 C 1814.450 195.731, 1808.600 193.435, 1807.500 192.973 C 1804.568 191.743, 1790.467 186.817, 1774.500 181.444 C 1766.800 178.853, 1755.550 174.964, 1749.500 172.803 C 1737.633 168.563, 1706.374 158.515, 1691 153.998 C 1671.230 148.190, 1639.236 137.526, 1630.500 133.832 C 1627.750 132.669, 1622.667 130.431, 1619.205 128.859 C 1615.743 127.287, 1612.700 126, 1612.443 126 C 1611.107 126, 1595.132 117.799, 1585.500 112.168 C 1579.450 108.632, 1573.600 105.234, 1572.500 104.619 C 1568.960 102.639, 1556.594 93.628, 1553.500 90.776 C 1551.850 89.254, 1550.178 88.007, 1549.784 88.005 C 1549.390 88.002, 1547.175 86.313, 1544.862 84.250 C 1526.290 67.691, 1510.578 50.532, 1499.227 34.410 C 1490.444 21.936, 1490.928 22.659, 1486.420 15.286 C 1481.585 7.377, 1479.818 6.204, 1481.014 11.698 M 164.250 266.750 C 187.213 266.899, 224.788 266.899, 247.750 266.750 C 270.713 266.600, 251.925 266.477, 206 266.477 C 160.075 266.477, 141.288 266.600, 164.250 266.750 M 1760.850 613.933 L 1753.199 614.500 1757.167 624 C 1759.349 629.225, 1761.747 635.075, 1762.495 637 C 1763.242 638.925, 1767.298 648.825, 1771.507 659 C 1775.716 669.175, 1779.842 679.414, 1780.675 681.754 L 1782.191 686.009 1815.346 685.396 C 1846.559 684.819, 1910.757 686.067, 1953 688.073 C 1963.175 688.556, 1997.769 689.246, 2029.874 689.607 C 2086.290 690.241, 2110.963 689.717, 2154 686.972 C 2183.265 685.105, 2220.184 681.067, 2240.250 677.539 C 2245.063 676.692, 2252.713 675.351, 2257.250 674.558 C 2271.058 672.144, 2294.627 666.354, 2306.500 662.459 C 2331.597 654.225, 2353.536 641.852, 2364.477 629.762 C 2369.538 624.170, 2374.724 615.391, 2373.620 614.287 C 2373.348 614.015, 2368.935 615.160, 2363.813 616.830 C 2345.645 622.756, 2325.665 627.307, 2302 630.912 C 2295.536 631.897, 2283.441 633.158, 2262.576 635.023 C 2248.401 636.291, 2180.726 636.284, 2158.650 635.013 C 2131.204 633.432, 2109.403 632.011, 2096.500 630.960 C 2089.900 630.423, 2075.275 629.280, 2064 628.421 C 2040.130 626.601, 2024.060 625.339, 2008 624.022 C 1935.308 618.061, 1888.603 615.490, 1826.500 614.032 C 1784.848 613.053, 1772.974 613.035, 1760.850 613.933 M 1644 626.275 C 1616.319 632.995, 1591.677 640.449, 1580.500 645.484 C 1578.850 646.228, 1575.475 647.631, 1573 648.602 C 1562.011 652.915, 1541.019 664.111, 1527.500 672.870 C 1521.240 676.926, 1506.368 687.752, 1503.336 690.460 C 1486.756 705.268, 1472.645 719.480, 1466.263 727.797 C 1465.293 729.061, 1463.479 731.311, 1462.231 732.797 C 1460.984 734.284, 1458.735 737.300, 1457.234 739.500 C 1455.733 741.700, 1454.272 743.725, 1453.986 744 C 1453.700 744.275, 1451.392 747.650, 1448.856 751.500 C 1442.826 760.655, 1439.047 767.300, 1426.390 791 C 1424.769 794.034, 1417.131 812.175, 1412.284 824.500 C 1406.183 840.012, 1393.365 880.698, 1394.288 881.621 C 1394.444 881.778, 1395.630 879.565, 1396.922 876.703 C 1404.528 859.864, 1413.011 844.483, 1421.501 832.140 C 1425.957 825.662, 1439.147 809.143, 1443.969 804 C 1454.681 792.577, 1458.116 789.160, 1463.573 784.500 C 1466.793 781.750, 1470.232 778.712, 1471.214 777.750 C 1472.196 776.788, 1473.231 776, 1473.514 776 C 1473.797 776, 1476.609 773.937, 1479.764 771.416 C 1488.245 764.639, 1488.061 764.775, 1494 760.935 C 1511.833 749.405, 1512.992 748.751, 1534.500 738.099 C 1553.868 728.506, 1555.590 727.804, 1581.885 718.788 C 1609.474 709.328, 1640.645 701.613, 1670 696.979 C 1674.125 696.328, 1678.029 695.643, 1678.677 695.457 C 1680.041 695.065, 1680.818 697.179, 1663.805 654.977 L 1651.500 624.455 1644 626.275 M 1807.750 707.744 C 1812.287 707.929, 1819.713 707.929, 1824.250 707.744 C 1828.787 707.559, 1825.075 707.407, 1816 707.407 C 1806.925 707.407, 1803.213 707.559, 1807.750 707.744 M 2197.750 732.740 C 2201.188 732.936, 2206.813 732.936, 2210.250 732.740 C 2213.688 732.545, 2210.875 732.385, 2204 732.385 C 2197.125 732.385, 2194.313 732.545, 2197.750 732.740 M 2020.302 786.746 C 2025.693 786.926, 2034.243 786.925, 2039.302 786.744 C 2044.361 786.563, 2039.950 786.416, 2029.500 786.417 C 2019.050 786.418, 2014.911 786.566, 2020.302 786.746 M 2061.750 786.740 C 2065.188 786.936, 2070.813 786.936, 2074.250 786.740 C 2077.688 786.545, 2074.875 786.385, 2068 786.385 C 2061.125 786.385, 2058.313 786.545, 2061.750 786.740 M 29.345 944.250 C 29.090 944.663, 68.846 944.894, 117.691 944.765 C 166.536 944.635, 192.325 944.411, 175 944.266 C 92.578 943.577, 29.765 943.571, 29.345 944.250" stroke="none" fill="#fbc160" fill-rule="evenodd"/><path d="M 0 502.500 L 0 1005.001 1189.750 1004.750 L 2379.500 1004.500 2379.751 502.250 L 2380.002 0 1190.001 0 L 0 0 0 502.500 M 0.496 503 C 0.496 779.375, 0.610 892.438, 0.750 754.250 C 0.890 616.063, 0.890 389.938, 0.750 251.750 C 0.610 113.563, 0.496 226.625, 0.496 503 M 1472.067 21.743 C 1452.045 54.563, 1440.320 69.260, 1422.064 84.419 C 1383.348 116.565, 1336.579 136.799, 1208 177.031 C 1140.290 198.217, 1114.376 209.015, 1085.383 228.123 C 1069.648 238.494, 1061.973 244.814, 1048 258.908 C 1030.165 276.897, 1019.436 293.820, 1013.605 313.160 C 1009.577 326.519, 1008.703 333.867, 1009.297 349.364 C 1009.890 364.828, 1011.379 372.901, 1016.598 388.938 C 1029.959 429.997, 1069.344 479.384, 1130.929 532.308 C 1140.516 540.546, 1147.941 547.105, 1147.429 546.883 C 1141.882 544.473, 1120.978 533.211, 1110.153 526.800 C 1062.704 498.697, 1024.593 468.188, 997.962 436.988 C 970.416 404.718, 955 369.689, 955 339.369 C 955 334.766, 954.605 331, 954.123 331 C 953.640 331, 949.044 336.288, 943.908 342.750 C 912.081 382.801, 899.466 411.769, 899.598 444.500 C 899.675 463.440, 903.059 478.468, 911.306 496.500 C 926.389 529.479, 949.781 554.599, 992 583.156 C 1015.624 599.135, 1036.642 610.779, 1091.232 638.128 C 1152.921 669.035, 1159.644 672.891, 1193.346 696.692 C 1221.860 716.829, 1231.005 724.111, 1240.648 734.358 C 1256.820 751.542, 1262.199 766.453, 1262.094 793.810 C 1262.034 809.532, 1259.633 820.059, 1253.042 833.500 C 1242.968 854.045, 1226.709 869.563, 1202.364 881.865 C 1185.021 890.629, 1164.554 896.442, 1138 900.146 C 1125.534 901.885, 1081.933 901.912, 1068 900.190 C 1044.564 897.293, 1015.259 890.228, 994.327 882.429 C 958.675 869.145, 923.312 848.216, 904.163 829.068 C 899.442 824.347, 899.252 823.932, 898.558 816.841 C 897.896 810.065, 893.014 770.896, 880.068 668.500 C 877.286 646.500, 872.093 604.875, 868.527 576 C 857.789 489.048, 843.404 383.454, 837.449 347.864 C 833.650 325.157, 834.413 314.868, 840.968 300.411 C 846.869 287.396, 860.332 272.026, 869.463 267.878 C 873.415 266.083, 871.616 266.043, 784.229 266.022 L 694.957 266 694.006 268.250 C 693.483 269.488, 689.851 279.500, 685.934 290.500 C 682.017 301.500, 676.830 316.012, 674.406 322.750 C 671.983 329.488, 667.940 340.738, 665.421 347.750 C 647.560 397.487, 632.446 438.681, 617.815 477.500 C 598.490 528.775, 558.927 634.234, 528.217 716.333 L 507.331 772.166 497.781 749.833 C 485.159 720.320, 459.061 659.159, 444.727 625.500 C 438.403 610.650, 422.784 573.975, 410.018 544 C 397.252 514.025, 380.827 475.775, 373.520 459 C 366.212 442.225, 344.586 392.500, 325.463 348.500 C 306.340 304.500, 290.181 267.935, 289.555 267.244 C 288.656 266.252, 270.137 266.042, 201.034 266.244 L 113.650 266.500 119.771 270.278 C 123.137 272.356, 128.152 276.328, 130.915 279.105 C 145.851 294.121, 150.848 310.389, 148.091 335.029 C 145.972 353.965, 138.964 414.173, 136.920 431 C 125.782 522.701, 99.202 733.740, 93.530 775.500 C 84.497 842.003, 82.703 854.514, 80.983 863 C 75.624 889.443, 63.253 914.540, 47.989 929.934 C 42.308 935.663, 39.607 937.771, 30.360 943.691 C 28.913 944.618, 48.257 944.891, 117.500 944.922 L 206.500 944.961 202 941.301 C 186.786 928.929, 176.021 913.203, 169.582 893.942 C 159.313 863.225, 160.084 842.179, 176.028 718 C 179.876 688.022, 193.508 591.283, 199.912 548.500 C 206.241 506.219, 211.255 473.195, 216.536 439 C 224.837 385.247, 225.875 378.791, 226.282 378.385 C 226.488 378.179, 273.373 487.021, 330.470 620.255 C 387.568 753.490, 436.933 867.981, 440.171 874.680 C 449.365 893.705, 465.838 917.084, 478.141 928.570 C 486.925 936.771, 498.679 945.612, 505.644 949.258 L 512.787 952.997 534.274 899.249 C 546.092 869.687, 594.797 748.075, 642.506 629 C 690.216 509.925, 732.180 405.075, 735.760 396 C 739.340 386.925, 742.584 379.147, 742.969 378.715 C 743.354 378.284, 744.169 381.884, 744.779 386.715 C 745.390 391.547, 748.366 413.725, 751.393 436 C 778.482 635.344, 797.492 787.426, 802.080 841.500 C 803.493 858.152, 802.808 879.409, 800.502 890.500 C 796.048 911.920, 786.434 926.158, 768.380 938.070 C 761.541 942.583, 760.962 943.178, 764 942.575 C 784.523 938.504, 784.208 938.529, 816 938.532 C 848.587 938.535, 857.417 939.216, 888 944.084 C 903.165 946.497, 927.347 951.283, 938.387 954.055 C 1004.585 970.676, 1037.460 975.744, 1085.188 976.687 C 1132.525 977.623, 1165.812 973.654, 1208.098 962.034 C 1265.714 946.202, 1319.787 914.924, 1346.109 882.204 C 1360.691 864.077, 1365.214 853.959, 1377.043 813 C 1385.027 785.356, 1408.178 717.364, 1421.819 681.500 C 1423.493 677.100, 1428.225 664.500, 1432.336 653.500 C 1439.860 633.365, 1447.336 613.873, 1463.785 571.500 C 1468.696 558.850, 1483.190 521.500, 1495.994 488.500 C 1508.798 455.500, 1524.430 415.225, 1530.732 399 C 1537.035 382.775, 1542.878 367.552, 1543.717 365.171 C 1544.556 362.790, 1545.571 361.215, 1545.973 361.671 C 1546.710 362.506, 1651 623.184, 1651 624.190 C 1651 624.487, 1647.737 625.479, 1643.750 626.395 C 1620.537 631.729, 1591.744 640.418, 1580.500 645.484 C 1578.850 646.228, 1575.475 647.631, 1573 648.602 C 1562.011 652.915, 1541.019 664.111, 1527.500 672.870 C 1521.240 676.926, 1506.368 687.752, 1503.336 690.460 C 1486.756 705.268, 1472.645 719.480, 1466.263 727.797 C 1465.293 729.061, 1463.479 731.311, 1462.231 732.797 C 1460.984 734.284, 1458.735 737.300, 1457.234 739.500 C 1455.733 741.700, 1454.272 743.725, 1453.986 744 C 1453.700 744.275, 1451.392 747.650, 1448.856 751.500 C 1442.826 760.655, 1439.047 767.300, 1426.390 791 C 1424.769 794.034, 1417.131 812.175, 1412.284 824.500 C 1406.183 840.012, 1393.365 880.698, 1394.288 881.621 C 1394.444 881.778, 1395.630 879.565, 1396.922 876.703 C 1404.528 859.864, 1413.011 844.483, 1421.501 832.140 C 1425.957 825.662, 1439.147 809.143, 1443.969 804 C 1454.681 792.577, 1458.116 789.160, 1463.573 784.500 C 1466.793 781.750, 1470.232 778.712, 1471.214 777.750 C 1472.196 776.788, 1473.231 776, 1473.514 776 C 1473.797 776, 1476.609 773.937, 1479.764 771.416 C 1488.245 764.639, 1488.061 764.775, 1494 760.935 C 1511.833 749.405, 1512.992 748.751, 1534.500 738.099 C 1553.868 728.506, 1555.590 727.804, 1581.885 718.788 C 1609.282 709.394, 1638.621 702.111, 1669.500 697.038 C 1673.350 696.405, 1677.255 695.739, 1678.178 695.556 C 1679.465 695.302, 1680.801 697.566, 1683.922 705.285 C 1686.158 710.818, 1687.878 715.414, 1687.744 715.498 C 1687.610 715.582, 1682.100 716.423, 1675.500 717.367 C 1668.900 718.310, 1655.626 720.674, 1646.003 722.619 C 1563.283 739.338, 1502.661 768.478, 1458.109 812.936 C 1418.984 851.978, 1394.433 899.421, 1376.411 970.808 C 1373.435 982.597, 1371.022 992.750, 1371.050 993.371 C 1371.077 993.992, 1372.585 990.450, 1374.400 985.500 C 1408.276 893.119, 1481.480 832.789, 1594 804.519 C 1628.352 795.888, 1674.348 788.459, 1706.120 786.411 L 1716.500 785.741 1723.871 804.121 C 1731.552 823.274, 1734.944 831.462, 1745.567 856.500 C 1754.207 876.866, 1755.006 879.355, 1755.677 888.015 C 1757.573 912.455, 1743.519 935.633, 1721.632 944.165 C 1718.130 945.530, 1727.606 945.732, 1821.622 946.296 C 1889.161 946.702, 1925.824 946.576, 1926.463 945.937 C 1927.107 945.293, 1919.170 936.768, 1903.460 921.227 C 1889.955 907.868, 1876.510 893.567, 1872.692 888.500 C 1866.462 880.233, 1858.371 865.498, 1851.827 850.500 C 1842.530 829.193, 1823 783.091, 1823 782.451 C 1823 781.595, 1887.931 782.582, 1923.063 783.972 C 2046.962 788.874, 2127.166 787.208, 2189.500 778.436 C 2260.636 768.427, 2315.554 746.728, 2346.949 716.228 L 2355.500 707.921 2348.431 711.382 C 2332.694 719.087, 2308.818 725.250, 2282.276 728.461 C 2257.041 731.513, 2234.495 732.287, 2189 731.663 C 2125.823 730.796, 2103.732 729.295, 1944 715.010 C 1879.988 709.286, 1831.345 706.526, 1805.608 707.159 L 1791.715 707.500 1787.354 697.087 C 1784.955 691.360, 1783.147 686.520, 1783.335 686.332 C 1783.523 686.144, 1798.037 685.716, 1815.588 685.382 C 1845.641 684.810, 1911.450 686.098, 1953 688.072 C 1963.175 688.555, 1997.769 689.246, 2029.874 689.607 C 2086.290 690.241, 2110.963 689.717, 2154 686.972 C 2183.265 685.105, 2220.184 681.067, 2240.250 677.539 C 2245.063 676.692, 2252.713 675.351, 2257.250 674.558 C 2271.058 672.144, 2294.627 666.354, 2306.500 662.459 C 2331.597 654.225, 2353.536 641.852, 2364.477 629.762 C 2369.538 624.170, 2374.724 615.391, 2373.620 614.287 C 2373.348 614.015, 2368.935 615.160, 2363.813 616.830 C 2345.645 622.756, 2325.665 627.307, 2302 630.912 C 2295.536 631.897, 2283.441 633.158, 2262.576 635.023 C 2248.401 636.291, 2180.726 636.284, 2158.650 635.013 C 2131.204 633.432, 2109.403 632.011, 2096.500 630.960 C 2089.900 630.423, 2075.275 629.280, 2064 628.421 C 2040.130 626.601, 2024.060 625.339, 2008 624.022 C 1960.549 620.131, 1927.776 617.959, 1886.500 615.970 C 1852.729 614.343, 1781.894 612.922, 1767.434 613.582 L 1753.369 614.223 1749.184 604.092 C 1746.883 598.521, 1745 593.554, 1745 593.056 C 1745 592.558, 1747.362 590.832, 1750.250 589.222 C 1755.520 586.282, 1771.194 576.917, 1774 575.032 C 1774.825 574.478, 1780.900 570.428, 1787.500 566.032 C 1810.001 551.046, 1824.500 540.527, 1837 530.121 C 1840.575 527.145, 1845.743 522.863, 1848.484 520.605 C 1857.472 513.203, 1863.285 507.792, 1879.500 491.734 C 1915.093 456.485, 1937.255 421.720, 1946.589 386.497 C 1948.763 378.293, 1949.328 373.559, 1949.740 360.097 C 1950.629 331.065, 1946.065 308.862, 1934.455 285.738 C 1932.036 280.919, 1929.582 276.419, 1929.002 275.738 C 1928.422 275.057, 1926.504 272.250, 1924.739 269.500 C 1918.056 259.087, 1905.023 246.028, 1888.980 233.671 C 1875.056 222.945, 1846.871 208.295, 1820.500 198.075 C 1814.450 195.731, 1808.600 193.435, 1807.500 192.973 C 1804.568 191.743, 1790.467 186.817, 1774.500 181.444 C 1766.800 178.853, 1755.550 174.964, 1749.500 172.803 C 1737.633 168.563, 1706.374 158.515, 1691 153.998 C 1671.230 148.190, 1639.236 137.526, 1630.500 133.832 C 1627.750 132.669, 1622.667 130.431, 1619.205 128.859 C 1615.743 127.287, 1612.700 126, 1612.443 126 C 1611.107 126, 1595.132 117.799, 1585.500 112.168 C 1579.450 108.632, 1573.600 105.234, 1572.500 104.619 C 1568.960 102.639, 1556.594 93.628, 1553.500 90.776 C 1551.850 89.254, 1550.178 88.007, 1549.784 88.005 C 1549.390 88.002, 1547.175 86.313, 1544.862 84.250 C 1526.290 67.691, 1510.578 50.532, 1499.227 34.410 C 1490.444 21.936, 1490.928 22.659, 1486.420 15.286 C 1484.176 11.616, 1481.917 8.472, 1481.400 8.300 C 1480.883 8.128, 1476.683 14.177, 1472.067 21.743 M 1480.654 21.500 C 1478.889 41.932, 1472.200 64.585, 1462.112 84.293 C 1451.684 104.665, 1440.763 119.228, 1423.334 136.003 C 1394.862 163.405, 1371.122 177.033, 1286 214.838 C 1227.291 240.912, 1213.634 247.344, 1197 256.753 C 1144.960 286.190, 1111.992 321.795, 1100.779 360.670 C 1098.831 367.423, 1098.520 370.837, 1098.517 385.500 C 1098.512 404.412, 1099.617 411.461, 1105.629 430.883 C 1113.181 455.284, 1124.744 478.678, 1143.498 507.500 C 1164.254 539.400, 1193.315 572.144, 1208.003 580.181 C 1211.576 582.136, 1222.375 588.011, 1232 593.236 C 1278.194 618.311, 1316.546 643.045, 1341.464 663.830 C 1344.195 666.108, 1346.726 667.640, 1347.090 667.236 C 1347.454 666.831, 1353.039 653, 1359.501 636.500 C 1365.964 620, 1376.865 592.550, 1383.726 575.500 C 1444.533 424.383, 1467.530 363.162, 1476.508 328.500 C 1482.892 303.853, 1477.144 286.739, 1457.640 272.330 L 1451.780 268 1529.843 268 L 1607.906 268 1610.061 272.750 C 1612.526 278.186, 1613.243 279.860, 1630.493 320.500 C 1643.957 352.222, 1655.158 378.780, 1665.497 403.500 C 1668.947 411.750, 1685.017 450, 1701.208 488.500 C 1717.398 527, 1733.512 565.587, 1737.017 574.250 C 1740.522 582.913, 1743.910 590, 1744.547 590 C 1746.058 590, 1769.787 564.594, 1779.841 552.211 C 1781.678 549.948, 1784.079 547.062, 1785.176 545.798 C 1786.273 544.534, 1788.145 542.224, 1789.335 540.664 C 1790.526 539.104, 1791.964 537.304, 1792.531 536.664 C 1798.479 529.952, 1817.254 502.446, 1825.747 488 C 1841.692 460.881, 1853.277 432.276, 1858.161 407.963 C 1861.558 391.056, 1861.499 367.337, 1858.027 354 C 1852.122 331.310, 1834.884 306.319, 1813.500 289.445 C 1810.750 287.275, 1808.275 285.229, 1808 284.898 C 1806.971 283.658, 1777.285 264.208, 1772 261.310 C 1768.975 259.652, 1764.700 257.261, 1762.500 255.999 C 1753.534 250.853, 1715.143 232, 1713.629 232 C 1712.733 232, 1712 231.550, 1712 231 C 1712 230.450, 1711.537 230, 1710.972 230 C 1710.406 230, 1706.693 228.477, 1702.722 226.615 C 1691.047 221.143, 1681.890 217, 1681.468 217 C 1681.252 217, 1676.671 214.922, 1671.288 212.382 C 1665.904 209.842, 1659.250 206.727, 1656.500 205.460 C 1631.316 193.855, 1606.228 181.448, 1594 174.549 C 1590.425 172.532, 1586.713 170.631, 1585.750 170.324 C 1584.787 170.018, 1584 169.369, 1584 168.883 C 1584 168.398, 1583.530 168, 1582.955 168 C 1582.015 168, 1576.764 164.533, 1562.854 154.728 C 1560.299 152.927, 1554.907 148.539, 1550.874 144.977 C 1510.765 109.558, 1487.575 65.974, 1481.719 15 C 1481.561 13.625, 1481.082 16.550, 1480.654 21.500 M 1936.633 500.250 C 1932.047 507.554, 1929.279 512.117, 1926.471 517 C 1924.731 520.025, 1918.150 531.275, 1911.847 542 C 1905.543 552.725, 1898.916 564.087, 1897.120 567.250 L 1893.853 573 1944.748 573 L 1995.643 573 2015.491 536.250 C 2026.408 516.038, 2035.514 499.163, 2035.729 498.750 C 2035.943 498.337, 2014.052 498, 1987.082 498 L 1938.046 498 1936.633 500.250" stroke="none" fill="#ffffff" fill-rule="evenodd"/></svg>